<?xml version="1.0" encoding="UTF-8" standalone="no"?>
<!DOCTYPE svg PUBLIC "-//W3C//DTD SVG 1.1//EN"
 "http://www.w3.org/Graphics/SVG/1.1/DTD/svg11.dtd">
<!-- Generated by graphviz version 2.26.3 (20100126.1600)
 -->
<!-- Title: G Pages: 1 -->
<svg width="1172pt" height="1592pt"
 viewBox="0.00 0.00 1172.00 1592.00" xmlns="http://www.w3.org/2000/svg" xmlns:xlink="http://www.w3.org/1999/xlink">
<g id="graph1" class="graph" transform="scale(1 1) rotate(0) translate(4 1588)">
<title>G</title>
<polygon fill="white" stroke="white" points="-4,5 -4,-1588 1169,-1588 1169,5 -4,5"/>
<g id="graph2" class="cluster"><title>cluster_global</title>
<polyline fill="none" stroke="gray" points="20,-98 1144,-98 "/>
<path fill="none" stroke="gray" d="M1144,-98C1150,-98 1156,-104 1156,-110"/>
<polyline fill="none" stroke="gray" points="1156,-110 1156,-1564 "/>
<path fill="none" stroke="gray" d="M1156,-1564C1156,-1570 1150,-1576 1144,-1576"/>
<polyline fill="none" stroke="gray" points="1144,-1576 20,-1576 "/>
<path fill="none" stroke="gray" d="M20,-1576C14,-1576 8,-1570 8,-1564"/>
<polyline fill="none" stroke="gray" points="8,-1564 8,-110 "/>
<path fill="none" stroke="gray" d="M8,-110C8,-104 14,-98 20,-98"/>
<text text-anchor="middle" x="582" y="-1562.1" font-family="Times Roman,serif" font-size="11.00" fill="gray">global</text>
</g>
<!-- \\xTransaction -->
<g id="node2" class="node"><title>\\xTransaction</title>
<a xlink:href="Data.Transaction.html" xlink:title="xTransaction" target="_parent">
<polygon fill="none" stroke="black" points="1101,-1546 1003,-1546 1003,-1510 1101,-1510 1101,-1546"/>
<text text-anchor="middle" x="1052" y="-1525.1" font-family="Courier,monospace" font-size="11.00">xTransaction</text>
</a>
</g>
<!-- \\xModel -->
<g id="node3" class="node"><title>\\xModel</title>
<a xlink:href="Data.Model.html" xlink:title="«abstract»&lt;br/&gt;xModel" target="_parent">
<polygon fill="none" stroke="black" points="456,-871 372,-871 372,-835 456,-835 456,-871"/>
<text text-anchor="start" x="380" y="-858.433" font-family="Courier,monospace" font-size="11.00">«abstract»</text>
<text text-anchor="start" x="393.5" y="-845.233" font-family="Courier,monospace" font-size="11.00">xModel</text>
</a>
</g>
<!-- \\xRestElement -->
<g id="node38" class="node"><title>\\xRestElement</title>
<a xlink:href="Core.Element.html" xlink:title="«abstract»&lt;br/&gt;xRestElement" target="_parent">
<polygon fill="none" stroke="black" points="273,-763 175,-763 175,-727 273,-727 273,-763"/>
<text text-anchor="start" x="190" y="-750.433" font-family="Courier,monospace" font-size="11.00">«abstract»</text>
<text text-anchor="start" x="183" y="-737.233" font-family="Courier,monospace" font-size="11.00">xRestElement</text>
</a>
</g>
<!-- \\xModel&#45;&gt;\\xRestElement -->
<g id="edge3" class="edge"><title>\\xModel&#45;&gt;\\xRestElement</title>
<path fill="none" stroke="black" d="M382.198,-834.923C350.002,-816.622 300.083,-788.247 264.947,-768.275"/>
<polygon fill="none" stroke="black" points="266.329,-765.035 255.905,-763.136 262.87,-771.12 266.329,-765.035"/>
</g>
<!-- \\xValidatorStore -->
<g id="node4" class="node"><title>\\xValidatorStore</title>
<a xlink:href="Data.Validator.html" xlink:title="xValidatorStore" target="_parent">
<polygon fill="none" stroke="black" points="1111,-1492 993,-1492 993,-1456 1111,-1456 1111,-1492"/>
<text text-anchor="middle" x="1052" y="-1471.1" font-family="Courier,monospace" font-size="11.00">xValidatorStore</text>
</a>
</g>
<!-- \\xValidator -->
<g id="node5" class="node"><title>\\xValidator</title>
<a xlink:href="Data.Validator.html" xlink:title="«abstract»&lt;br/&gt;xValidator" target="_parent">
<polygon fill="none" stroke="black" points="652,-1222 568,-1222 568,-1186 652,-1186 652,-1222"/>
<text text-anchor="start" x="576" y="-1209.43" font-family="Courier,monospace" font-size="11.00">«abstract»</text>
<text text-anchor="start" x="576" y="-1196.23" font-family="Courier,monospace" font-size="11.00">xValidator</text>
</a>
</g>
<!-- \\xValidatorModel -->
<g id="node6" class="node"><title>\\xValidatorModel</title>
<a xlink:href="Data.Validator.html" xlink:title="xValidatorModel" target="_parent">
<polygon fill="none" stroke="black" points="870,-1546 752,-1546 752,-1510 870,-1510 870,-1546"/>
<text text-anchor="middle" x="811" y="-1525.1" font-family="Courier,monospace" font-size="11.00">xValidatorModel</text>
</a>
</g>
<!-- \\xValidatorModel&#45;&gt;\\xValidator -->
<g id="edge5" class="edge"><title>\\xValidatorModel&#45;&gt;\\xValidator</title>
<path fill="none" stroke="black" d="M751.881,-1511.13C746.849,-1508.26 742.117,-1504.91 738,-1501 657.855,-1424.97 625.294,-1290.37 614.516,-1232.14"/>
<polygon fill="none" stroke="black" points="617.944,-1231.42 612.75,-1222.19 611.051,-1232.65 617.944,-1231.42"/>
</g>
<!-- \\xValidatorRegexp -->
<g id="node7" class="node"><title>\\xValidatorRegexp</title>
<a xlink:href="Data.Validator.html" xlink:title="«abstract»&lt;br/&gt;xValidatorRegexp" target="_parent">
<polygon fill="none" stroke="black" points="874,-1330 748,-1330 748,-1294 874,-1294 874,-1330"/>
<text text-anchor="start" x="777" y="-1317.43" font-family="Courier,monospace" font-size="11.00">«abstract»</text>
<text text-anchor="start" x="756.5" y="-1304.23" font-family="Courier,monospace" font-size="11.00">xValidatorRegexp</text>
</a>
</g>
<!-- \\xValidatorRegexp&#45;&gt;\\xValidator -->
<g id="edge7" class="edge"><title>\\xValidatorRegexp&#45;&gt;\\xValidator</title>
<path fill="none" stroke="black" d="M758.201,-1293.98C751.31,-1291.19 744.42,-1288.17 738,-1285 704.472,-1268.42 668.688,-1245.26 643.505,-1227.95"/>
<polygon fill="none" stroke="black" points="645.272,-1224.92 635.061,-1222.09 641.282,-1230.67 645.272,-1224.92"/>
</g>
<!-- \\xValidatorMandatory -->
<g id="node8" class="node"><title>\\xValidatorMandatory</title>
<a xlink:href="Data.Validator.html" xlink:title="xValidatorMandatory" target="_parent">
<polygon fill="none" stroke="black" points="883,-1492 739,-1492 739,-1456 883,-1456 883,-1492"/>
<text text-anchor="middle" x="811" y="-1471.1" font-family="Courier,monospace" font-size="11.00">xValidatorMandatory</text>
</a>
</g>
<!-- \\xValidatorMandatory&#45;&gt;\\xValidator -->
<g id="edge9" class="edge"><title>\\xValidatorMandatory&#45;&gt;\\xValidator</title>
<path fill="none" stroke="black" d="M750.745,-1455.97C746.183,-1453.36 741.86,-1450.39 738,-1447 669.734,-1387.11 632.197,-1281.84 617.451,-1231.86"/>
<polygon fill="none" stroke="black" points="620.765,-1230.71 614.647,-1222.07 614.036,-1232.64 620.765,-1230.71"/>
</g>
<!-- \\xValidatorEmail -->
<g id="node9" class="node"><title>\\xValidatorEmail</title>
<a xlink:href="Data.Validator.html" xlink:title="xValidatorEmail" target="_parent">
<polygon fill="none" stroke="black" points="1111,-1438 993,-1438 993,-1402 1111,-1402 1111,-1438"/>
<text text-anchor="middle" x="1052" y="-1417.1" font-family="Courier,monospace" font-size="11.00">xValidatorEmail</text>
</a>
</g>
<!-- \\xValidatorEmail&#45;&gt;\\xValidatorRegexp -->
<g id="edge11" class="edge"><title>\\xValidatorEmail&#45;&gt;\\xValidatorRegexp</title>
<path fill="none" stroke="black" d="M992.844,-1407.07C980.354,-1403.32 967.487,-1398.67 956,-1393 920.137,-1375.28 919.125,-1358.14 884,-1339 880.941,-1337.33 877.758,-1335.73 874.506,-1334.19"/>
<polygon fill="none" stroke="black" points="875.766,-1330.92 865.209,-1330.03 872.909,-1337.31 875.766,-1330.92"/>
</g>
<!-- \\xValidatorUrl -->
<g id="node10" class="node"><title>\\xValidatorUrl</title>
<a xlink:href="Data.Validator.html" xlink:title="xValidatorUrl" target="_parent">
<polygon fill="none" stroke="black" points="1104,-1384 1000,-1384 1000,-1348 1104,-1348 1104,-1384"/>
<text text-anchor="middle" x="1052" y="-1363.1" font-family="Courier,monospace" font-size="11.00">xValidatorUrl</text>
</a>
</g>
<!-- \\xValidatorUrl&#45;&gt;\\xValidatorRegexp -->
<g id="edge13" class="edge"><title>\\xValidatorUrl&#45;&gt;\\xValidatorRegexp</title>
<path fill="none" stroke="black" d="M999.707,-1354.28C965.903,-1346.71 921.421,-1336.74 884.136,-1328.39"/>
<polygon fill="none" stroke="black" points="884.848,-1324.96 874.325,-1326.19 883.318,-1331.79 884.848,-1324.96"/>
</g>
<!-- \\xValidatorMinlength -->
<g id="node11" class="node"><title>\\xValidatorMinlength</title>
<a xlink:href="Data.Validator.html" xlink:title="xValidatorMinlength" target="_parent">
<polygon fill="none" stroke="black" points="883,-1438 739,-1438 739,-1402 883,-1402 883,-1438"/>
<text text-anchor="middle" x="811" y="-1417.1" font-family="Courier,monospace" font-size="11.00">xValidatorMinlength</text>
</a>
</g>
<!-- \\xValidatorMinlength&#45;&gt;\\xValidator -->
<g id="edge15" class="edge"><title>\\xValidatorMinlength&#45;&gt;\\xValidator</title>
<path fill="none" stroke="black" d="M751.875,-1401.89C746.96,-1399.29 742.254,-1396.33 738,-1393 681.384,-1348.62 640.699,-1272.14 621.82,-1231.41"/>
<polygon fill="none" stroke="black" points="624.916,-1229.76 617.598,-1222.1 618.541,-1232.65 624.916,-1229.76"/>
</g>
<!-- \\xValidatorMaxlength -->
<g id="node12" class="node"><title>\\xValidatorMaxlength</title>
<a xlink:href="Data.Validator.html" xlink:title="xValidatorMaxlength" target="_parent">
<polygon fill="none" stroke="black" points="883,-1384 739,-1384 739,-1348 883,-1348 883,-1384"/>
<text text-anchor="middle" x="811" y="-1363.1" font-family="Courier,monospace" font-size="11.00">xValidatorMaxlength</text>
</a>
</g>
<!-- \\xValidatorMaxlength&#45;&gt;\\xValidator -->
<g id="edge17" class="edge"><title>\\xValidatorMaxlength&#45;&gt;\\xValidator</title>
<path fill="none" stroke="black" d="M753.939,-1347.85C748.377,-1345.22 742.963,-1342.27 738,-1339 692.85,-1309.22 651.995,-1260.63 629.137,-1230.58"/>
<polygon fill="none" stroke="black" points="631.703,-1228.17 622.908,-1222.26 626.1,-1232.37 631.703,-1228.17"/>
</g>
<!-- \\xValidatorInteger -->
<g id="node13" class="node"><title>\\xValidatorInteger</title>
<a xlink:href="Data.Validator.html" xlink:title="xValidatorInteger" target="_parent">
<polygon fill="none" stroke="black" points="1117,-1330 987,-1330 987,-1294 1117,-1294 1117,-1330"/>
<text text-anchor="middle" x="1052" y="-1309.1" font-family="Courier,monospace" font-size="11.00">xValidatorInteger</text>
</a>
</g>
<!-- \\xValidatorInteger&#45;&gt;\\xValidatorRegexp -->
<g id="edge19" class="edge"><title>\\xValidatorInteger&#45;&gt;\\xValidatorRegexp</title>
<path fill="none" stroke="black" d="M986.464,-1312C954.895,-1312 916.921,-1312 884.385,-1312"/>
<polygon fill="none" stroke="black" points="884.028,-1308.5 874.028,-1312 884.028,-1315.5 884.028,-1308.5"/>
</g>
<!-- \\xValidatorDate -->
<g id="node14" class="node"><title>\\xValidatorDate</title>
<a xlink:href="Data.Validator.html" xlink:title="xValidatorDate" target="_parent">
<polygon fill="none" stroke="black" points="866,-1276 756,-1276 756,-1240 866,-1240 866,-1276"/>
<text text-anchor="middle" x="811" y="-1255.1" font-family="Courier,monospace" font-size="11.00">xValidatorDate</text>
</a>
</g>
<!-- \\xValidatorDate&#45;&gt;\\xValidator -->
<g id="edge21" class="edge"><title>\\xValidatorDate&#45;&gt;\\xValidator</title>
<path fill="none" stroke="black" d="M755.277,-1243.03C726.281,-1235.24 691.035,-1225.77 662.521,-1218.11"/>
<polygon fill="none" stroke="black" points="663.303,-1214.7 652.737,-1215.48 661.486,-1221.46 663.303,-1214.7"/>
</g>
<!-- \\xValidatorTime -->
<g id="node15" class="node"><title>\\xValidatorTime</title>
<a xlink:href="Data.Validator.html" xlink:title="xValidatorTime" target="_parent">
<polygon fill="none" stroke="black" points="866,-1222 756,-1222 756,-1186 866,-1186 866,-1222"/>
<text text-anchor="middle" x="811" y="-1201.1" font-family="Courier,monospace" font-size="11.00">xValidatorTime</text>
</a>
</g>
<!-- \\xValidatorTime&#45;&gt;\\xValidator -->
<g id="edge23" class="edge"><title>\\xValidatorTime&#45;&gt;\\xValidator</title>
<path fill="none" stroke="black" d="M755.277,-1204C726.408,-1204 691.342,-1204 662.895,-1204"/>
<polygon fill="none" stroke="black" points="662.737,-1200.5 652.737,-1204 662.737,-1207.5 662.737,-1200.5"/>
</g>
<!-- \\xValidatorDatetime -->
<g id="node16" class="node"><title>\\xValidatorDatetime</title>
<a xlink:href="Data.Validator.html" xlink:title="xValidatorDatetime" target="_parent">
<polygon fill="none" stroke="black" points="880,-1168 742,-1168 742,-1132 880,-1132 880,-1168"/>
<text text-anchor="middle" x="811" y="-1147.1" font-family="Courier,monospace" font-size="11.00">xValidatorDatetime</text>
</a>
</g>
<!-- \\xValidatorDatetime&#45;&gt;\\xValidator -->
<g id="edge25" class="edge"><title>\\xValidatorDatetime&#45;&gt;\\xValidator</title>
<path fill="none" stroke="black" d="M743.79,-1168.06C717.31,-1175.17 687.353,-1183.22 662.509,-1189.89"/>
<polygon fill="none" stroke="black" points="661.303,-1186.59 652.554,-1192.57 663.12,-1193.35 661.303,-1186.59"/>
</g>
<!-- \\xValidatorMinvalue -->
<g id="node17" class="node"><title>\\xValidatorMinvalue</title>
<a xlink:href="Data.Validator.html" xlink:title="xValidatorMinvalue" target="_parent">
<polygon fill="none" stroke="black" points="880,-1114 742,-1114 742,-1078 880,-1078 880,-1114"/>
<text text-anchor="middle" x="811" y="-1093.1" font-family="Courier,monospace" font-size="11.00">xValidatorMinvalue</text>
</a>
</g>
<!-- \\xValidatorMinvalue&#45;&gt;\\xValidator -->
<g id="edge27" class="edge"><title>\\xValidatorMinvalue&#45;&gt;\\xValidator</title>
<path fill="none" stroke="black" d="M758.201,-1114.02C751.31,-1116.81 744.42,-1119.83 738,-1123 704.472,-1139.58 668.688,-1162.74 643.505,-1180.05"/>
<polygon fill="none" stroke="black" points="641.282,-1177.33 635.061,-1185.91 645.272,-1183.08 641.282,-1177.33"/>
</g>
<!-- \\xValidatorMaxvalue -->
<g id="node18" class="node"><title>\\xValidatorMaxvalue</title>
<a xlink:href="Data.Validator.html" xlink:title="xValidatorMaxvalue" target="_parent">
<polygon fill="none" stroke="black" points="880,-1060 742,-1060 742,-1024 880,-1024 880,-1060"/>
<text text-anchor="middle" x="811" y="-1039.1" font-family="Courier,monospace" font-size="11.00">xValidatorMaxvalue</text>
</a>
</g>
<!-- \\xValidatorMaxvalue&#45;&gt;\\xValidator -->
<g id="edge29" class="edge"><title>\\xValidatorMaxvalue&#45;&gt;\\xValidator</title>
<path fill="none" stroke="black" d="M753.939,-1060.15C748.377,-1062.78 742.963,-1065.73 738,-1069 692.85,-1098.78 651.995,-1147.37 629.137,-1177.42"/>
<polygon fill="none" stroke="black" points="626.1,-1175.63 622.908,-1185.74 631.703,-1179.83 626.1,-1175.63"/>
</g>
<!-- \\xValidatorConfirm -->
<g id="node19" class="node"><title>\\xValidatorConfirm</title>
<a xlink:href="Data.Validator.html" xlink:title="xValidatorConfirm" target="_parent">
<polygon fill="none" stroke="black" points="876,-1006 746,-1006 746,-970 876,-970 876,-1006"/>
<text text-anchor="middle" x="811" y="-985.1" font-family="Courier,monospace" font-size="11.00">xValidatorConfirm</text>
</a>
</g>
<!-- \\xValidatorConfirm&#45;&gt;\\xValidator -->
<g id="edge31" class="edge"><title>\\xValidatorConfirm&#45;&gt;\\xValidator</title>
<path fill="none" stroke="black" d="M751.875,-1006.11C746.96,-1008.71 742.254,-1011.67 738,-1015 681.384,-1059.38 640.699,-1135.86 621.82,-1176.59"/>
<polygon fill="none" stroke="black" points="618.541,-1175.35 617.598,-1185.9 624.916,-1178.24 618.541,-1175.35"/>
</g>
<!-- \\xValidatorChecked -->
<g id="node20" class="node"><title>\\xValidatorChecked</title>
<a xlink:href="Data.Validator.html" xlink:title="xValidatorChecked" target="_parent">
<polygon fill="none" stroke="black" points="876,-952 746,-952 746,-916 876,-916 876,-952"/>
<text text-anchor="middle" x="811" y="-931.1" font-family="Courier,monospace" font-size="11.00">xValidatorChecked</text>
</a>
</g>
<!-- \\xValidatorChecked&#45;&gt;\\xValidator -->
<g id="edge33" class="edge"><title>\\xValidatorChecked&#45;&gt;\\xValidator</title>
<path fill="none" stroke="black" d="M750.745,-952.025C746.183,-954.638 741.86,-957.614 738,-961 669.734,-1020.89 632.197,-1126.16 617.451,-1176.14"/>
<polygon fill="none" stroke="black" points="614.036,-1175.36 614.647,-1185.93 620.765,-1177.29 614.036,-1175.36"/>
</g>
<!-- \\xValidatorUnique -->
<g id="node21" class="node"><title>\\xValidatorUnique</title>
<a xlink:href="Data.Validator.html" xlink:title="xValidatorUnique" target="_parent">
<polygon fill="none" stroke="black" points="873,-898 749,-898 749,-862 873,-862 873,-898"/>
<text text-anchor="middle" x="811" y="-877.1" font-family="Courier,monospace" font-size="11.00">xValidatorUnique</text>
</a>
</g>
<!-- \\xValidatorUnique&#45;&gt;\\xValidator -->
<g id="edge35" class="edge"><title>\\xValidatorUnique&#45;&gt;\\xValidator</title>
<path fill="none" stroke="black" d="M749.744,-898.131C745.509,-900.712 741.529,-903.652 738,-907 657.855,-983.032 625.294,-1117.63 614.516,-1175.86"/>
<polygon fill="none" stroke="black" points="611.051,-1175.35 612.75,-1185.81 617.944,-1176.58 611.051,-1175.35"/>
</g>
<!-- \\xModelPostgres -->
<g id="node22" class="node"><title>\\xModelPostgres</title>
<a xlink:href="Data.ModelPostgres.html" xlink:title="«abstract»&lt;br/&gt;xModelPostgres" target="_parent">
<polygon fill="none" stroke="black" points="666,-925 554,-925 554,-889 666,-889 666,-925"/>
<text text-anchor="start" x="576" y="-912.433" font-family="Courier,monospace" font-size="11.00">«abstract»</text>
<text text-anchor="start" x="562.5" y="-899.233" font-family="Courier,monospace" font-size="11.00">xModelPostgres</text>
</a>
</g>
<!-- \\xModelPostgres&#45;&gt;\\xModel -->
<g id="edge37" class="edge"><title>\\xModelPostgres&#45;&gt;\\xModel</title>
<path fill="none" stroke="black" d="M553.834,-891.526C526.33,-883.948 493.414,-874.879 466.428,-867.445"/>
<polygon fill="none" stroke="black" points="467.346,-864.067 456.776,-864.785 465.487,-870.816 467.346,-864.067"/>
</g>
<!-- \\xModelMysql -->
<g id="node23" class="node"><title>\\xModelMysql</title>
<a xlink:href="Data.ModelMysql.html" xlink:title="«abstract»&lt;br/&gt;xModelMysql" target="_parent">
<polygon fill="none" stroke="black" points="656,-871 564,-871 564,-835 656,-835 656,-871"/>
<text text-anchor="start" x="576" y="-858.433" font-family="Courier,monospace" font-size="11.00">«abstract»</text>
<text text-anchor="start" x="572.5" y="-845.233" font-family="Courier,monospace" font-size="11.00">xModelMysql</text>
</a>
</g>
<!-- \\xModelMysql&#45;&gt;\\xModel -->
<g id="edge39" class="edge"><title>\\xModelMysql&#45;&gt;\\xModel</title>
<path fill="none" stroke="black" d="M563.551,-853C534.589,-853 497.231,-853 467.098,-853"/>
<polygon fill="none" stroke="black" points="466.767,-849.5 456.767,-853 466.767,-856.5 466.767,-849.5"/>
</g>
<!-- \\xJsFront -->
<g id="node24" class="node"><title>\\xJsFront</title>
<a xlink:href="Front.JsFront.html" xlink:title="xJsFront" target="_parent">
<polygon fill="none" stroke="black" points="645,-763 575,-763 575,-727 645,-727 645,-763"/>
<text text-anchor="middle" x="610" y="-742.1" font-family="Courier,monospace" font-size="11.00">xJsFront</text>
</a>
</g>
<!-- \\xFront -->
<g id="node26" class="node"><title>\\xFront</title>
<a xlink:href="Front.Front.html" xlink:title="«abstract»&lt;br/&gt;xFront" target="_parent">
<polygon fill="none" stroke="black" points="456,-763 372,-763 372,-727 456,-727 456,-763"/>
<text text-anchor="start" x="380" y="-750.433" font-family="Courier,monospace" font-size="11.00">«abstract»</text>
<text text-anchor="start" x="393.5" y="-737.233" font-family="Courier,monospace" font-size="11.00">xFront</text>
</a>
</g>
<!-- \\xJsFront&#45;&gt;\\xFront -->
<g id="edge41" class="edge"><title>\\xJsFront&#45;&gt;\\xFront</title>
<path fill="none" stroke="black" d="M574.051,-745C544.004,-745 500.739,-745 466.765,-745"/>
<polygon fill="none" stroke="black" points="466.544,-741.5 456.544,-745 466.544,-748.5 466.544,-741.5"/>
</g>
<!-- \\xRssFront -->
<g id="node25" class="node"><title>\\xRssFront</title>
<a xlink:href="Front.RssFront.html" xlink:title="xRssFront" target="_parent">
<polygon fill="none" stroke="black" points="1090,-1276 1014,-1276 1014,-1240 1090,-1240 1090,-1276"/>
<text text-anchor="middle" x="1052" y="-1255.1" font-family="Courier,monospace" font-size="11.00">xRssFront</text>
</a>
</g>
<!-- \\xApiFront -->
<g id="node29" class="node"><title>\\xApiFront</title>
<a xlink:href="Front.ApiFront.html" xlink:title="xApiFront" target="_parent">
<polygon fill="none" stroke="black" points="849,-844 773,-844 773,-808 849,-808 849,-844"/>
<text text-anchor="middle" x="811" y="-823.1" font-family="Courier,monospace" font-size="11.00">xApiFront</text>
</a>
</g>
<!-- \\xRssFront&#45;&gt;\\xApiFront -->
<g id="edge43" class="edge"><title>\\xRssFront&#45;&gt;\\xApiFront</title>
<path fill="none" stroke="black" d="M1013.33,-1256.48C993.491,-1253.65 970.514,-1246.82 956,-1231 840.377,-1104.99 994.485,-983.541 884,-853 877.453,-845.264 868.476,-839.744 859.056,-835.804"/>
<polygon fill="none" stroke="black" points="860.155,-832.48 849.561,-832.369 857.773,-839.062 860.155,-832.48"/>
</g>
<!-- \\xFront&#45;&gt;\\xRestElement -->
<g id="edge45" class="edge"><title>\\xFront&#45;&gt;\\xRestElement</title>
<path fill="none" stroke="black" d="M371.36,-745C345.538,-745 312.209,-745 283.782,-745"/>
<polygon fill="none" stroke="black" points="283.553,-741.5 273.553,-745 283.553,-748.5 283.553,-741.5"/>
</g>
<!-- \\xWebFront -->
<g id="node27" class="node"><title>\\xWebFront</title>
<a xlink:href="Front.WebFront.html" xlink:title="xWebFront" target="_parent">
<polygon fill="none" stroke="black" points="648,-709 572,-709 572,-673 648,-673 648,-709"/>
<text text-anchor="middle" x="610" y="-688.1" font-family="Courier,monospace" font-size="11.00">xWebFront</text>
</a>
</g>
<!-- \\xWebFront&#45;&gt;\\xFront -->
<g id="edge47" class="edge"><title>\\xWebFront&#45;&gt;\\xFront</title>
<path fill="none" stroke="black" d="M571.277,-701.669C541.35,-709.914 499.61,-721.414 466.65,-730.494"/>
<polygon fill="none" stroke="black" points="465.437,-727.198 456.725,-733.229 467.296,-733.947 465.437,-727.198"/>
</g>
<!-- \\xModelFront -->
<g id="node28" class="node"><title>\\xModelFront</title>
<a xlink:href="Front.ModelFront.html" xlink:title="xModelFront" target="_parent">
<polygon fill="none" stroke="black" points="856,-790 766,-790 766,-754 856,-754 856,-790"/>
<text text-anchor="middle" x="811" y="-769.1" font-family="Courier,monospace" font-size="11.00">xModelFront</text>
</a>
</g>
<!-- \\xRestFront -->
<g id="node30" class="node"><title>\\xRestFront</title>
<a xlink:href="Front.RestFront.html" xlink:title="«abstract»&lt;br/&gt;xRestFront" target="_parent">
<polygon fill="none" stroke="black" points="652,-817 568,-817 568,-781 652,-781 652,-817"/>
<text text-anchor="start" x="576" y="-804.433" font-family="Courier,monospace" font-size="11.00">«abstract»</text>
<text text-anchor="start" x="576" y="-791.233" font-family="Courier,monospace" font-size="11.00">xRestFront</text>
</a>
</g>
<!-- \\xModelFront&#45;&gt;\\xRestFront -->
<g id="edge49" class="edge"><title>\\xModelFront&#45;&gt;\\xRestFront</title>
<path fill="none" stroke="black" d="M765.39,-778.127C734.871,-782.226 694.611,-787.634 662.719,-791.918"/>
<polygon fill="none" stroke="black" points="662.126,-788.467 652.681,-793.267 663.058,-795.404 662.126,-788.467"/>
</g>
<!-- \\xApiFront&#45;&gt;\\xRestFront -->
<g id="edge51" class="edge"><title>\\xApiFront&#45;&gt;\\xRestFront</title>
<path fill="none" stroke="black" d="M772.245,-820.794C741.23,-816.628 697.406,-810.741 663.121,-806.136"/>
<polygon fill="none" stroke="black" points="663.188,-802.613 652.811,-804.751 662.256,-809.551 663.188,-802.613"/>
</g>
<!-- \\xRestFront&#45;&gt;\\xFront -->
<g id="edge53" class="edge"><title>\\xRestFront&#45;&gt;\\xFront</title>
<path fill="none" stroke="black" d="M567.471,-787.283C537.907,-779.138 498.301,-768.226 466.729,-759.528"/>
<polygon fill="none" stroke="black" points="467.355,-756.069 456.784,-756.787 465.495,-762.818 467.355,-756.069"/>
</g>
<!-- \\xUtil -->
<g id="node31" class="node"><title>\\xUtil</title>
<a xlink:href="Core.Util.html" xlink:title="xUtil" target="_parent">
<polygon fill="none" stroke="black" points="1079,-1222 1025,-1222 1025,-1186 1079,-1186 1079,-1222"/>
<text text-anchor="middle" x="1052" y="-1201.1" font-family="Courier,monospace" font-size="11.00">xUtil</text>
</a>
</g>
<!-- \\xLogger -->
<g id="node32" class="node"><title>\\xLogger</title>
<a xlink:href="Core.Logger.html" xlink:title="xLogger" target="_parent">
<polygon fill="none" stroke="black" points="1084,-1168 1020,-1168 1020,-1132 1084,-1132 1084,-1168"/>
<text text-anchor="middle" x="1052" y="-1147.1" font-family="Courier,monospace" font-size="11.00">xLogger</text>
</a>
</g>
<!-- \\xWebController -->
<g id="node33" class="node"><title>\\xWebController</title>
<a xlink:href="Core.WebController.html" xlink:title="«abstract»&lt;br/&gt;xWebController" target="_parent">
<polygon fill="none" stroke="black" points="666,-655 554,-655 554,-619 666,-619 666,-655"/>
<text text-anchor="start" x="576" y="-642.433" font-family="Courier,monospace" font-size="11.00">«abstract»</text>
<text text-anchor="start" x="562.5" y="-629.233" font-family="Courier,monospace" font-size="11.00">xWebController</text>
</a>
</g>
<!-- \\xController -->
<g id="node43" class="node"><title>\\xController</title>
<a xlink:href="Core.Controller.html" xlink:title="«abstract»&lt;br/&gt;xController" target="_parent">
<polygon fill="none" stroke="black" points="460,-682 368,-682 368,-646 460,-646 460,-682"/>
<text text-anchor="start" x="380" y="-669.433" font-family="Courier,monospace" font-size="11.00">«abstract»</text>
<text text-anchor="start" x="376.5" y="-656.233" font-family="Courier,monospace" font-size="11.00">xController</text>
</a>
</g>
<!-- \\xWebController&#45;&gt;\\xController -->
<g id="edge55" class="edge"><title>\\xWebController&#45;&gt;\\xController</title>
<path fill="none" stroke="black" d="M553.834,-644.737C527.67,-648.341 496.608,-652.62 470.413,-656.229"/>
<polygon fill="none" stroke="black" points="469.69,-652.795 460.261,-657.627 470.645,-659.73 469.69,-652.795"/>
</g>
<!-- \\xZend_Config -->
<g id="node34" class="node"><title>\\xZend_Config</title>
<a xlink:href="Core.Config.html" xlink:title="xZend_Config" target="_parent">
<polygon fill="none" stroke="black" points="659,-493 561,-493 561,-457 659,-457 659,-493"/>
<text text-anchor="middle" x="610" y="-472.1" font-family="Courier,monospace" font-size="11.00">xZend_Config</text>
</a>
</g>
<!-- \\Countable -->
<g id="node118" class="node"><title>\\Countable</title>
<ellipse fill="none" stroke="black" cx="414" cy="-72" rx="67.8823" ry="18.3848"/>
<text text-anchor="middle" x="414" y="-68.4" font-family="Times Roman,serif" font-size="14.00" fill="gray">\\Countable</text>
</g>
<!-- \\xZend_Config&#45;&gt;\\Countable -->
<g id="edge95" class="edge"><title>\\xZend_Config&#45;&gt;\\Countable</title>
<path fill="none" stroke="black" stroke-dasharray="1,5" d="M563.074,-456.851C559.681,-454.259 556.584,-451.323 554,-448 455.423,-321.271 588.982,-213.719 482,-94 480.264,-92.057 478.355,-90.2848 476.313,-88.6684"/>
<polygon fill="none" stroke="black" points="478.156,-85.6921 467.865,-83.1744 474.34,-91.5604 478.156,-85.6921"/>
</g>
<!-- \\Iterator -->
<g id="node120" class="node"><title>\\Iterator</title>
<ellipse fill="none" stroke="black" cx="414" cy="-18" rx="55.8614" ry="18.3848"/>
<text text-anchor="middle" x="414" y="-14.4" font-family="Times Roman,serif" font-size="14.00" fill="gray">\\Iterator</text>
</g>
<!-- \\xZend_Config&#45;&gt;\\Iterator -->
<g id="edge97" class="edge"><title>\\xZend_Config&#45;&gt;\\Iterator</title>
<path fill="none" stroke="black" stroke-dasharray="1,5" d="M562.988,-456.917C559.614,-454.311 556.545,-451.353 554,-448 444.009,-303.063 597.087,-185.925 482,-45 478.243,-40.3991 473.589,-36.5781 468.491,-33.4056"/>
<polygon fill="none" stroke="black" points="470.046,-30.2679 459.574,-28.6557 466.755,-36.4461 470.046,-30.2679"/>
</g>
<!-- \\xZend_Config_Ini -->
<g id="node35" class="node"><title>\\xZend_Config_Ini</title>
<a xlink:href="Core.Config.html" xlink:title="xZend_Config_Ini" target="_parent">
<polygon fill="none" stroke="black" points="873,-736 749,-736 749,-700 873,-700 873,-736"/>
<text text-anchor="middle" x="811" y="-715.1" font-family="Courier,monospace" font-size="11.00">xZend_Config_Ini</text>
</a>
</g>
<!-- \\xZend_Config_Ini&#45;&gt;\\xZend_Config -->
<g id="edge57" class="edge"><title>\\xZend_Config_Ini&#45;&gt;\\xZend_Config</title>
<path fill="none" stroke="black" d="M751.291,-699.964C746.556,-697.348 742.047,-694.375 738,-691 675.596,-638.964 636.206,-548.188 619.401,-502.676"/>
<polygon fill="none" stroke="black" points="622.656,-501.385 615.975,-493.163 616.07,-503.757 622.656,-501.385"/>
</g>
<!-- \\xConfig -->
<g id="node36" class="node"><title>\\xConfig</title>
<a xlink:href="Core.Config.html" xlink:title="xConfig" target="_parent">
<polygon fill="none" stroke="black" points="1084,-1114 1020,-1114 1020,-1078 1084,-1078 1084,-1114"/>
<text text-anchor="middle" x="1052" y="-1093.1" font-family="Courier,monospace" font-size="11.00">xConfig</text>
</a>
</g>
<!-- \\xConfig&#45;&gt;\\xZend_Config_Ini -->
<g id="edge59" class="edge"><title>\\xConfig&#45;&gt;\\xZend_Config_Ini</title>
<path fill="none" stroke="black" d="M1019.62,-1095.09C998.648,-1092.75 972.3,-1086.23 956,-1069 854.627,-961.839 981.002,-856.134 884,-745 883.245,-744.135 882.459,-743.297 881.646,-742.486"/>
<polygon fill="none" stroke="black" points="883.601,-739.562 873.663,-735.889 879.142,-744.957 883.601,-739.562"/>
</g>
<!-- \\xElement -->
<g id="node37" class="node"><title>\\xElement</title>
<a xlink:href="Core.Element.html" xlink:title="«abstract»&lt;br/&gt;xElement" target="_parent">
<polygon fill="none" stroke="black" points="101,-763 17,-763 17,-727 101,-727 101,-763"/>
<text text-anchor="start" x="25" y="-750.433" font-family="Courier,monospace" font-size="11.00">«abstract»</text>
<text text-anchor="start" x="31.5" y="-737.233" font-family="Courier,monospace" font-size="11.00">xElement</text>
</a>
</g>
<!-- \\xRestElement&#45;&gt;\\xElement -->
<g id="edge61" class="edge"><title>\\xRestElement&#45;&gt;\\xElement</title>
<path fill="none" stroke="black" d="M174.495,-745C154.771,-745 132.035,-745 111.98,-745"/>
<polygon fill="none" stroke="black" points="111.767,-741.5 101.767,-745 111.767,-748.5 111.767,-741.5"/>
</g>
<!-- \\xDummyLogger -->
<g id="node39" class="node"><title>\\xDummyLogger</title>
<a xlink:href="Core.Bootstrap.html" xlink:title="xDummyLogger" target="_parent">
<polygon fill="none" stroke="black" points="1101,-1060 1003,-1060 1003,-1024 1101,-1024 1101,-1060"/>
<text text-anchor="middle" x="1052" y="-1039.1" font-family="Courier,monospace" font-size="11.00">xDummyLogger</text>
</a>
</g>
<!-- \\xBootstrap -->
<g id="node40" class="node"><title>\\xBootstrap</title>
<a xlink:href="Core.Bootstrap.html" xlink:title="xBootstrap" target="_parent">
<polygon fill="none" stroke="black" points="1094,-1006 1010,-1006 1010,-970 1094,-970 1094,-1006"/>
<text text-anchor="middle" x="1052" y="-985.1" font-family="Courier,monospace" font-size="11.00">xBootstrap</text>
</a>
</g>
<!-- \\xContext -->
<g id="node41" class="node"><title>\\xContext</title>
<a xlink:href="Core.Context.html" xlink:title="xContext" target="_parent">
<polygon fill="none" stroke="black" points="1087,-952 1017,-952 1017,-916 1087,-916 1087,-952"/>
<text text-anchor="middle" x="1052" y="-931.1" font-family="Courier,monospace" font-size="11.00">xContext</text>
</a>
</g>
<!-- \\xException -->
<g id="node42" class="node"><title>\\xException</title>
<a xlink:href="Core.Exception.html" xlink:title="xException" target="_parent">
<polygon fill="none" stroke="black" points="1094,-304 1010,-304 1010,-268 1094,-268 1094,-304"/>
<text text-anchor="middle" x="1052" y="-283.1" font-family="Courier,monospace" font-size="11.00">xException</text>
</a>
</g>
<!-- \\Exception -->
<g id="node101" class="node"><title>\\Exception</title>
<ellipse fill="none" stroke="black" cx="811" cy="-72" rx="62.9325" ry="18.3848"/>
<text text-anchor="middle" x="811" y="-68.4" font-family="Times Roman,serif" font-size="14.00" fill="gray">\Exception</text>
</g>
<!-- \\xException&#45;&gt;\\Exception -->
<g id="edge63" class="edge"><title>\\xException&#45;&gt;\\Exception</title>
<path fill="none" stroke="black" d="M1009.89,-282.262C991.545,-278.739 970.881,-271.966 956,-259 895.676,-206.437 943.834,-147.12 884,-94 880.771,-91.133 877.179,-88.6394 873.369,-86.4706"/>
<polygon fill="none" stroke="black" points="874.676,-83.2138 864.153,-81.9768 871.608,-89.5057 874.676,-83.2138"/>
</g>
<!-- \\xController&#45;&gt;\\xRestElement -->
<g id="edge65" class="edge"><title>\\xController&#45;&gt;\\xRestElement</title>
<path fill="none" stroke="black" d="M371.36,-682.178C343.125,-694.215 305.915,-710.079 275.951,-722.853"/>
<polygon fill="none" stroke="black" points="274.324,-719.741 266.497,-726.883 277.069,-726.181 274.324,-719.741"/>
</g>
<!-- \\xScript -->
<g id="node44" class="node"><title>\\xScript</title>
<a xlink:href="Util.Script.html" xlink:title="«abstract»&lt;br/&gt;xScript" target="_parent">
<polygon fill="none" stroke="black" points="1094,-844 1010,-844 1010,-808 1094,-808 1094,-844"/>
<text text-anchor="start" x="1018" y="-831.433" font-family="Courier,monospace" font-size="11.00">«abstract»</text>
<text text-anchor="start" x="1028" y="-818.233" font-family="Courier,monospace" font-size="11.00">xScript</text>
</a>
</g>
<!-- \\xAuth -->
<g id="node45" class="node"><title>\\xAuth</title>
<a xlink:href="Util.Auth.html" xlink:title="xAuth" target="_parent">
<polygon fill="none" stroke="black" points="1079,-790 1025,-790 1025,-754 1079,-754 1079,-790"/>
<text text-anchor="middle" x="1052" y="-769.1" font-family="Courier,monospace" font-size="11.00">xAuth</text>
</a>
</g>
<!-- \\xRouter -->
<g id="node46" class="node"><title>\\xRouter</title>
<a xlink:href="Util.Router.html" xlink:title="xRouter" target="_parent">
<polygon fill="none" stroke="black" points="1084,-736 1020,-736 1020,-700 1084,-700 1084,-736"/>
<text text-anchor="middle" x="1052" y="-715.1" font-family="Courier,monospace" font-size="11.00">xRouter</text>
</a>
</g>
<!-- \\xFormTemplate -->
<g id="node47" class="node"><title>\\xFormTemplate</title>
<a xlink:href="Util.Form.html" xlink:title="xFormTemplate" target="_parent">
<polygon fill="none" stroke="black" points="1104,-682 1000,-682 1000,-646 1104,-646 1104,-682"/>
<text text-anchor="middle" x="1052" y="-661.1" font-family="Courier,monospace" font-size="11.00">xFormTemplate</text>
</a>
</g>
<!-- \\xForm -->
<g id="node48" class="node"><title>\\xForm</title>
<a xlink:href="Util.Form.html" xlink:title="«abstract»&lt;br/&gt;xForm" target="_parent">
<polygon fill="none" stroke="black" points="1094,-628 1010,-628 1010,-592 1094,-592 1094,-628"/>
<text text-anchor="start" x="1018" y="-615.433" font-family="Courier,monospace" font-size="11.00">«abstract»</text>
<text text-anchor="start" x="1035" y="-602.233" font-family="Courier,monospace" font-size="11.00">xForm</text>
</a>
</g>
<!-- \\xFormFieldFree -->
<g id="node49" class="node"><title>\\xFormFieldFree</title>
<a xlink:href="Util.Form.html" xlink:title="xFormFieldFree" target="_parent">
<polygon fill="none" stroke="black" points="866,-250 756,-250 756,-214 866,-214 866,-250"/>
<text text-anchor="middle" x="811" y="-229.1" font-family="Courier,monospace" font-size="11.00">xFormFieldFree</text>
</a>
</g>
<!-- \\xFormField -->
<g id="node59" class="node"><title>\\xFormField</title>
<a xlink:href="Util.Form.html" xlink:title="«abstract»&lt;br/&gt;xFormField" target="_parent">
<polygon fill="none" stroke="black" points="652,-439 568,-439 568,-403 652,-403 652,-439"/>
<text text-anchor="start" x="576" y="-426.433" font-family="Courier,monospace" font-size="11.00">«abstract»</text>
<text text-anchor="start" x="576" y="-413.233" font-family="Courier,monospace" font-size="11.00">xFormField</text>
</a>
</g>
<!-- \\xFormFieldFree&#45;&gt;\\xFormField -->
<g id="edge67" class="edge"><title>\\xFormFieldFree&#45;&gt;\\xFormField</title>
<path fill="none" stroke="black" d="M755.13,-248.959C749.094,-251.857 743.248,-255.188 738,-259 687.151,-295.934 645.912,-358.267 624.972,-393.883"/>
<polygon fill="none" stroke="black" points="621.819,-392.343 619.852,-402.753 627.882,-395.842 621.819,-392.343"/>
</g>
<!-- \\xFormFieldView -->
<g id="node50" class="node"><title>\\xFormFieldView</title>
<a xlink:href="Util.Form.html" xlink:title="xFormFieldView" target="_parent">
<polygon fill="none" stroke="black" points="866,-682 756,-682 756,-646 866,-646 866,-682"/>
<text text-anchor="middle" x="811" y="-661.1" font-family="Courier,monospace" font-size="11.00">xFormFieldView</text>
</a>
</g>
<!-- \\xFormFieldView&#45;&gt;\\xFormField -->
<g id="edge69" class="edge"><title>\\xFormFieldView&#45;&gt;\\xFormField</title>
<path fill="none" stroke="black" d="M755.323,-649.309C748.969,-645.994 742.993,-641.944 738,-637 674.131,-573.749 726.794,-514.213 666,-448 664.458,-446.32 662.789,-444.734 661.025,-443.237"/>
<polygon fill="none" stroke="black" points="662.921,-440.289 652.776,-437.235 658.802,-445.949 662.921,-440.289"/>
</g>
<!-- \\xFormFieldText -->
<g id="node51" class="node"><title>\\xFormFieldText</title>
<a xlink:href="Util.Form.html" xlink:title="xFormFieldText" target="_parent">
<polygon fill="none" stroke="black" points="866,-304 756,-304 756,-268 866,-268 866,-304"/>
<text text-anchor="middle" x="811" y="-283.1" font-family="Courier,monospace" font-size="11.00">xFormFieldText</text>
</a>
</g>
<!-- \\xFormFieldText&#45;&gt;\\xFormField -->
<g id="edge71" class="edge"><title>\\xFormFieldText&#45;&gt;\\xFormField</title>
<path fill="none" stroke="black" d="M755.836,-304.042C749.673,-306.745 743.604,-309.735 738,-313 698.556,-335.982 659.347,-371.398 634.923,-395.351"/>
<polygon fill="none" stroke="black" points="632.158,-393.165 627.53,-402.696 637.091,-398.131 632.158,-393.165"/>
</g>
<!-- \\xFormFieldTextarea -->
<g id="node52" class="node"><title>\\xFormFieldTextarea</title>
<a xlink:href="Util.Form.html" xlink:title="xFormFieldTextarea" target="_parent">
<polygon fill="none" stroke="black" points="880,-628 742,-628 742,-592 880,-592 880,-628"/>
<text text-anchor="middle" x="811" y="-607.1" font-family="Courier,monospace" font-size="11.00">xFormFieldTextarea</text>
</a>
</g>
<!-- \\xFormFieldTextarea&#45;&gt;\\xFormField -->
<g id="edge73" class="edge"><title>\\xFormFieldTextarea&#45;&gt;\\xFormField</title>
<path fill="none" stroke="black" d="M750.764,-591.953C746.197,-589.345 741.869,-586.376 738,-583 686.767,-538.287 715.052,-495.095 666,-448 664.387,-446.451 662.668,-444.976 660.871,-443.573"/>
<polygon fill="none" stroke="black" points="662.804,-440.655 652.579,-437.878 658.841,-446.425 662.804,-440.655"/>
</g>
<!-- \\xFormFieldPassword -->
<g id="node53" class="node"><title>\\xFormFieldPassword</title>
<a xlink:href="Util.Form.html" xlink:title="xFormFieldPassword" target="_parent">
<polygon fill="none" stroke="black" points="880,-574 742,-574 742,-538 880,-538 880,-574"/>
<text text-anchor="middle" x="811" y="-553.1" font-family="Courier,monospace" font-size="11.00">xFormFieldPassword</text>
</a>
</g>
<!-- \\xFormFieldPassword&#45;&gt;\\xFormField -->
<g id="edge75" class="edge"><title>\\xFormFieldPassword&#45;&gt;\\xFormField</title>
<path fill="none" stroke="black" d="M753.452,-537.835C748.044,-535.215 742.798,-532.277 738,-529 698.225,-501.835 704.44,-477.023 666,-448 664.417,-446.805 662.773,-445.642 661.085,-444.514"/>
<polygon fill="none" stroke="black" points="662.706,-441.403 652.352,-439.16 659.048,-447.371 662.706,-441.403"/>
</g>
<!-- \\xFormFieldCheckbox -->
<g id="node54" class="node"><title>\\xFormFieldCheckbox</title>
<a xlink:href="Util.Form.html" xlink:title="xFormFieldCheckbox" target="_parent">
<polygon fill="none" stroke="black" points="880,-520 742,-520 742,-484 880,-484 880,-520"/>
<text text-anchor="middle" x="811" y="-499.1" font-family="Courier,monospace" font-size="11.00">xFormFieldCheckbox</text>
</a>
</g>
<!-- \\xFormFieldCheckbox&#45;&gt;\\xFormField -->
<g id="edge77" class="edge"><title>\\xFormFieldCheckbox&#45;&gt;\\xFormField</title>
<path fill="none" stroke="black" d="M761.408,-483.999C753.554,-481.05 745.539,-477.983 738,-475 712.474,-464.901 684.343,-453.108 660.971,-443.123"/>
<polygon fill="none" stroke="black" points="662.17,-439.829 651.6,-439.108 659.414,-446.264 662.17,-439.829"/>
</g>
<!-- \\xFormFieldSelect -->
<g id="node55" class="node"><title>\\xFormFieldSelect</title>
<a xlink:href="Util.Form.html" xlink:title="xFormFieldSelect" target="_parent">
<polygon fill="none" stroke="black" points="873,-412 749,-412 749,-376 873,-376 873,-412"/>
<text text-anchor="middle" x="811" y="-391.1" font-family="Courier,monospace" font-size="11.00">xFormFieldSelect</text>
</a>
</g>
<!-- \\xFormFieldSelect&#45;&gt;\\xFormField -->
<g id="edge79" class="edge"><title>\\xFormFieldSelect&#45;&gt;\\xFormField</title>
<path fill="none" stroke="black" d="M748.229,-402.432C720.773,-406.12 688.923,-410.398 662.72,-413.918"/>
<polygon fill="none" stroke="black" points="662.052,-410.476 652.607,-415.277 662.984,-417.414 662.052,-410.476"/>
</g>
<!-- \\xFormFieldOption -->
<g id="node56" class="node"><title>\\xFormFieldOption</title>
<a xlink:href="Util.Form.html" xlink:title="xFormFieldOption" target="_parent">
<polygon fill="none" stroke="black" points="873,-466 749,-466 749,-430 873,-430 873,-466"/>
<text text-anchor="middle" x="811" y="-445.1" font-family="Courier,monospace" font-size="11.00">xFormFieldOption</text>
</a>
</g>
<!-- \\xFormFieldOption&#45;&gt;\\xFormField -->
<g id="edge81" class="edge"><title>\\xFormFieldOption&#45;&gt;\\xFormField</title>
<path fill="none" stroke="black" d="M748.229,-439.568C720.773,-435.88 688.923,-431.602 662.72,-428.082"/>
<polygon fill="none" stroke="black" points="662.984,-424.586 652.607,-426.723 662.052,-431.524 662.984,-424.586"/>
</g>
<!-- \\xFormFieldSelectNumeric -->
<g id="node57" class="node"><title>\\xFormFieldSelectNumeric</title>
<a xlink:href="Util.Form.html" xlink:title="xFormFieldSelectNumeric" target="_parent">
<polygon fill="none" stroke="black" points="1138,-898 966,-898 966,-862 1138,-862 1138,-898"/>
<text text-anchor="middle" x="1052" y="-877.1" font-family="Courier,monospace" font-size="11.00">xFormFieldSelectNumeric</text>
</a>
</g>
<!-- \\xFormFieldSelectNumeric&#45;&gt;\\xFormFieldSelect -->
<g id="edge83" class="edge"><title>\\xFormFieldSelectNumeric&#45;&gt;\\xFormFieldSelect</title>
<path fill="none" stroke="black" d="M966.046,-861.895C962.39,-859.301 959.005,-856.352 956,-853 826.066,-708.068 1008.03,-571.017 884,-421 883.152,-419.975 882.262,-418.989 881.334,-418.04"/>
<polygon fill="none" stroke="black" points="883.445,-415.242 873.542,-411.475 878.934,-420.595 883.445,-415.242"/>
</g>
<!-- \\xFormFieldSubmit -->
<g id="node58" class="node"><title>\\xFormFieldSubmit</title>
<a xlink:href="Util.Form.html" xlink:title="xFormFieldSubmit" target="_parent">
<polygon fill="none" stroke="black" points="873,-358 749,-358 749,-322 873,-322 873,-358"/>
<text text-anchor="middle" x="811" y="-337.1" font-family="Courier,monospace" font-size="11.00">xFormFieldSubmit</text>
</a>
</g>
<!-- \\xFormFieldSubmit&#45;&gt;\\xFormField -->
<g id="edge85" class="edge"><title>\\xFormFieldSubmit&#45;&gt;\\xFormField</title>
<path fill="none" stroke="black" d="M761.408,-358.001C753.554,-360.95 745.539,-364.017 738,-367 712.474,-377.099 684.343,-388.892 660.971,-398.877"/>
<polygon fill="none" stroke="black" points="659.414,-395.736 651.6,-402.892 662.17,-402.171 659.414,-395.736"/>
</g>
<!-- \\xSiteMap -->
<g id="node60" class="node"><title>\\xSiteMap</title>
<a xlink:href="Misc.Reusables.Sitemap.Sitemap.html" xlink:title="xSiteMap" target="_parent">
<polygon fill="none" stroke="black" points="1087,-520 1017,-520 1017,-484 1087,-484 1087,-520"/>
<text text-anchor="middle" x="1052" y="-499.1" font-family="Courier,monospace" font-size="11.00">xSiteMap</text>
</a>
</g>
<!-- \\xGeocoder -->
<g id="node61" class="node"><title>\\xGeocoder</title>
<a xlink:href="Misc.Reusables.standalones.Geocoder.Geocoder.html" xlink:title="«abstract»&lt;br/&gt;xGeocoder" target="_parent">
<polygon fill="none" stroke="black" points="652,-196 568,-196 568,-160 652,-160 652,-196"/>
<text text-anchor="start" x="576" y="-183.433" font-family="Courier,monospace" font-size="11.00">«abstract»</text>
<text text-anchor="start" x="579.5" y="-170.233" font-family="Courier,monospace" font-size="11.00">xGeocoder</text>
</a>
</g>
<!-- \\xGeocoderGeonames -->
<g id="node62" class="node"><title>\\xGeocoderGeonames</title>
<a xlink:href="Misc.Reusables.standalones.Geocoder.Geocoder.html" xlink:title="«abstract»&lt;br/&gt;xGeocoderGeonames" target="_parent">
<polygon fill="none" stroke="black" points="877,-196 745,-196 745,-160 877,-160 877,-196"/>
<text text-anchor="start" x="777" y="-183.433" font-family="Courier,monospace" font-size="11.00">«abstract»</text>
<text text-anchor="start" x="753.5" y="-170.233" font-family="Courier,monospace" font-size="11.00">xGeocoderGeonames</text>
</a>
</g>
<!-- \\xGeocoderGeonames&#45;&gt;\\xGeocoder -->
<g id="edge87" class="edge"><title>\\xGeocoderGeonames&#45;&gt;\\xGeocoder</title>
<path fill="none" stroke="black" d="M744.907,-178C718.257,-178 687.936,-178 662.799,-178"/>
<polygon fill="none" stroke="black" points="662.727,-174.5 652.727,-178 662.727,-181.5 662.727,-174.5"/>
</g>
<!-- \\xGeocoderGeonamesFulltext -->
<g id="node63" class="node"><title>\\xGeocoderGeonamesFulltext</title>
<a xlink:href="Misc.Reusables.standalones.Geocoder.Geocoder.html" xlink:title="xGeocoderGeonamesFulltext" target="_parent">
<polygon fill="none" stroke="black" points="1144,-466 960,-466 960,-430 1144,-430 1144,-466"/>
<text text-anchor="middle" x="1052" y="-445.1" font-family="Courier,monospace" font-size="11.00">xGeocoderGeonamesFulltext</text>
</a>
</g>
<!-- \\xGeocoderGeonamesFulltext&#45;&gt;\\xGeocoderGeonames -->
<g id="edge89" class="edge"><title>\\xGeocoderGeonamesFulltext&#45;&gt;\\xGeocoderGeonames</title>
<path fill="none" stroke="black" d="M967.543,-429.859C963.398,-427.282 959.508,-424.345 956,-421 882.764,-351.168 954.382,-277.708 884,-205 883.075,-204.044 882.113,-203.122 881.118,-202.232"/>
<polygon fill="none" stroke="black" points="883.01,-199.274 872.925,-196.027 878.783,-204.854 883.01,-199.274"/>
</g>
<!-- \\xGeocoderGeonamesZipSearch -->
<g id="node64" class="node"><title>\\xGeocoderGeonamesZipSearch</title>
<a xlink:href="Misc.Reusables.standalones.Geocoder.Geocoder.html" xlink:title="xGeocoderGeonamesZipSearch" target="_parent">
<polygon fill="none" stroke="black" points="1148,-412 956,-412 956,-376 1148,-376 1148,-412"/>
<text text-anchor="middle" x="1052" y="-391.1" font-family="Courier,monospace" font-size="11.00">xGeocoderGeonamesZipSearch</text>
</a>
</g>
<!-- \\xGeocoderGeonamesZipSearch&#45;&gt;\\xGeocoderGeonames -->
<g id="edge91" class="edge"><title>\\xGeocoderGeonamesZipSearch&#45;&gt;\\xGeocoderGeonames</title>
<path fill="none" stroke="black" d="M968.829,-375.972C964.253,-373.372 959.927,-370.399 956,-367 896.421,-315.44 941.467,-258.904 884,-205 882.891,-203.96 881.739,-202.959 880.549,-201.996"/>
<polygon fill="none" stroke="black" points="882.417,-199.032 872.214,-196.175 878.408,-204.77 882.417,-199.032"/>
</g>
<!-- \\xDeveloperInformation -->
<g id="node65" class="node"><title>\\xDeveloperInformation</title>
<a xlink:href="Misc.Reusables.DeveloperInformation.DeveloperInformation.html" xlink:title="xDeveloperInformation" target="_parent">
<polygon fill="none" stroke="black" points="1131,-358 973,-358 973,-322 1131,-322 1131,-358"/>
<text text-anchor="middle" x="1052" y="-337.1" font-family="Courier,monospace" font-size="11.00">xDeveloperInformation</text>
</a>
</g>
<!-- \\xFormFieldDatepickerMoo -->
<g id="node66" class="node"><title>\\xFormFieldDatepickerMoo</title>
<a xlink:href="Misc.Reusables.xFormField.DatepickerMoo.FormFieldDatepickerMoo.html" xlink:title="xFormFieldDatepickerMoo" target="_parent">
<polygon fill="none" stroke="black" points="1138,-574 966,-574 966,-538 1138,-538 1138,-574"/>
<text text-anchor="middle" x="1052" y="-553.1" font-family="Courier,monospace" font-size="11.00">xFormFieldDatepickerMoo</text>
</a>
</g>
<!-- \\xFormFieldDatepickerMoo&#45;&gt;\\xFormFieldText -->
<g id="edge93" class="edge"><title>\\xFormFieldDatepickerMoo&#45;&gt;\\xFormFieldText</title>
<path fill="none" stroke="black" d="M967.543,-537.859C963.398,-535.282 959.508,-532.345 956,-529 882.764,-459.168 954.382,-385.708 884,-313 881.354,-310.266 878.407,-307.807 875.257,-305.596"/>
<polygon fill="none" stroke="black" points="876.879,-302.487 866.512,-300.3 873.253,-308.474 876.879,-302.487"/>
</g>
<!-- \\xFormHelper -->
<g id="node67" class="node"><title>\\xFormHelper</title>
<a xlink:href="Misc.Helpers.FormHelper.html" xlink:title="xFormHelper" target="_parent">
<polygon fill="none" stroke="black" points="1097,-250 1007,-250 1007,-214 1097,-214 1097,-250"/>
<text text-anchor="middle" x="1052" y="-229.1" font-family="Courier,monospace" font-size="11.00">xFormHelper</text>
</a>
</g>
<!-- \\xValidatorHelper -->
<g id="node68" class="node"><title>\\xValidatorHelper</title>
<a xlink:href="Misc.Helpers.ValidatorHelper.html" xlink:title="xValidatorHelper" target="_parent">
<polygon fill="none" stroke="black" points="1114,-196 990,-196 990,-160 1114,-160 1114,-196"/>
<text text-anchor="middle" x="1052" y="-175.1" font-family="Courier,monospace" font-size="11.00">xValidatorHelper</text>
</a>
</g>
<!-- \\xView -->
<g id="node69" class="node"><title>\\xView</title>
<a xlink:href="View.View.html" xlink:title="xView" target="_parent">
<polygon fill="none" stroke="black" points="1079,-142 1025,-142 1025,-106 1079,-106 1079,-142"/>
<text text-anchor="middle" x="1052" y="-121.1" font-family="Courier,monospace" font-size="11.00">xView</text>
</a>
</g>
</g>
</svg>
